<svg xmlns="http://www.w3.org/2000/svg" viewBox="0 0 2400 1350" role="img" aria-label="Dark AI control room inspired abstract background">
  <defs>
    <linearGradient id="bg" x1="0" x2="1" y1="0" y2="1">
      <stop offset="0%" stop-color="#06090f" />
      <stop offset="55%" stop-color="#0a0f1a" />
      <stop offset="100%" stop-color="#0a0a0a" />
    </linearGradient>
    <radialGradient id="c1" cx="20%" cy="15%" r="55%">
      <stop offset="0%" stop-color="#00d2ff" stop-opacity="0.30" />
      <stop offset="100%" stop-color="#00d2ff" stop-opacity="0" />
    </radialGradient>
    <radialGradient id="c2" cx="80%" cy="75%" r="45%">
      <stop offset="0%" stop-color="#ff8c00" stop-opacity="0.20" />
      <stop offset="100%" stop-color="#ff8c00" stop-opacity="0" />
    </radialGradient>
  </defs>
  <rect width="2400" height="1350" fill="url(#bg)" />
  <rect width="2400" height="1350" fill="url(#c1)" />
  <rect width="2400" height="1350" fill="url(#c2)" />

  <g stroke="#1f2b3a" stroke-width="2" opacity="0.55">
    <path d="M0 240h2400" />
    <path d="M0 430h2400" />
    <path d="M0 620h2400" />
    <path d="M0 810h2400" />
    <path d="M0 1000h2400" />
    <path d="M350 0v1350" />
    <path d="M700 0v1350" />
    <path d="M1050 0v1350" />
    <path d="M1400 0v1350" />
    <path d="M1750 0v1350" />
    <path d="M2100 0v1350" />
  </g>

  <g fill="none" stroke="#00d2ff" stroke-opacity="0.5" stroke-width="4">
    <path d="M250 1020c260-280 500-120 760-340s500-440 1150-450" />
    <path d="M150 920c220-210 470-90 700-260s450-320 900-360" />
  </g>
</svg>
